<?xml version="1.0" encoding="UTF-8"?>
<svg xmlns="http://www.w3.org/2000/svg" xmlns:xlink="http://www.w3.org/1999/xlink" width="499px" height="499px" viewBox="0 0 499 499" version="1.1">
<g id="surface1">
<path style=" stroke:none;fill-rule:evenodd;fill:rgb(98.431373%,62.352941%,41.176471%);fill-opacity:1;" d="M 41.582031 135.144531 C 41.582031 83.472656 83.472656 41.582031 135.144531 41.582031 L 249.5 41.582031 C 295.429688 41.582031 332.667969 78.820312 332.667969 124.75 L 332.667969 145.542969 C 332.667969 157.023438 323.359375 166.332031 311.875 166.332031 C 300.390625 166.332031 291.082031 157.023438 291.082031 145.542969 L 291.082031 124.75 C 291.082031 101.785156 272.464844 83.167969 249.5 83.167969 L 135.144531 83.167969 C 106.4375 83.167969 83.167969 106.4375 83.167969 135.144531 L 83.167969 363.855469 C 83.167969 392.558594 106.4375 415.832031 135.144531 415.832031 L 249.5 415.832031 C 272.464844 415.832031 291.082031 397.214844 291.082031 374.25 L 291.082031 353.457031 C 291.082031 341.976562 300.390625 332.667969 311.875 332.667969 C 323.359375 332.667969 332.667969 341.976562 332.667969 353.457031 L 332.667969 374.25 C 332.667969 420.179688 295.429688 457.417969 249.5 457.417969 L 135.144531 457.417969 C 83.472656 457.417969 41.582031 415.527344 41.582031 363.855469 Z M 380.339844 172.421875 C 388.457031 164.304688 401.625 164.304688 409.742188 172.421875 L 472.117188 234.796875 C 480.238281 242.917969 480.238281 256.082031 472.117188 264.203125 L 409.742188 326.578125 C 401.625 334.695312 388.457031 334.695312 380.339844 326.578125 C 372.21875 318.457031 372.21875 305.292969 380.339844 297.171875 L 407.222656 270.292969 L 228.707031 270.292969 C 217.226562 270.292969 207.917969 260.984375 207.917969 249.5 C 207.917969 238.015625 217.226562 228.707031 228.707031 228.707031 L 407.222656 228.707031 L 380.339844 201.828125 C 372.21875 193.707031 372.21875 180.542969 380.339844 172.421875 Z M 380.339844 172.421875 "/>
</g>
</svg>
