<?xml version="1.0" encoding="UTF-8"?>
<svg xmlns="http://www.w3.org/2000/svg" xmlns:xlink="http://www.w3.org/1999/xlink" width="259px" height="259px" viewBox="0 0 259 259" version="1.1">
<g id="surface1">
<path style=" stroke:none;fill-rule:evenodd;fill:rgb(98.431373%,62.352941%,41.176471%);fill-opacity:1;" d="M 21.582031 70.144531 C 21.582031 43.324219 43.324219 21.582031 70.144531 21.582031 L 129.5 21.582031 C 153.339844 21.582031 172.667969 40.910156 172.667969 64.75 L 172.667969 75.542969 C 172.667969 81.503906 167.835938 86.332031 161.875 86.332031 C 155.914062 86.332031 151.082031 81.503906 151.082031 75.542969 L 151.082031 64.75 C 151.082031 52.828125 141.421875 43.167969 129.5 43.167969 L 70.144531 43.167969 C 55.246094 43.167969 43.167969 55.246094 43.167969 70.144531 L 43.167969 188.855469 C 43.167969 203.753906 55.246094 215.832031 70.144531 215.832031 L 129.5 215.832031 C 141.421875 215.832031 151.082031 206.171875 151.082031 194.25 L 151.082031 183.457031 C 151.082031 177.496094 155.914062 172.667969 161.875 172.667969 C 167.835938 172.667969 172.667969 177.496094 172.667969 183.457031 L 172.667969 194.25 C 172.667969 218.089844 153.339844 237.417969 129.5 237.417969 L 70.144531 237.417969 C 43.324219 237.417969 21.582031 215.675781 21.582031 188.855469 Z M 197.410156 89.496094 C 201.625 85.28125 208.457031 85.28125 212.671875 89.496094 L 245.046875 121.871094 C 249.261719 126.082031 249.261719 132.917969 245.046875 137.128906 L 212.671875 169.503906 C 208.457031 173.71875 201.625 173.71875 197.410156 169.503906 C 193.195312 165.292969 193.195312 158.457031 197.410156 154.246094 L 211.363281 140.292969 L 118.707031 140.292969 C 112.746094 140.292969 107.917969 135.460938 107.917969 129.5 C 107.917969 123.539062 112.746094 118.707031 118.707031 118.707031 L 211.363281 118.707031 L 197.410156 104.753906 C 193.195312 100.539062 193.195312 93.710938 197.410156 89.496094 Z M 197.410156 89.496094 "/>
</g>
</svg>
