<?xml version="1.0" encoding="UTF-8"?>
<svg xmlns="http://www.w3.org/2000/svg" xmlns:xlink="http://www.w3.org/1999/xlink" width="299px" height="299px" viewBox="0 0 299 299" version="1.1">
<g id="surface1">
<path style=" stroke:none;fill-rule:evenodd;fill:rgb(98.431373%,62.352941%,41.176471%);fill-opacity:1;" d="M 24.917969 80.980469 C 24.917969 50.015625 50.015625 24.917969 80.980469 24.917969 L 149.5 24.917969 C 177.023438 24.917969 199.332031 47.226562 199.332031 74.75 L 199.332031 87.207031 C 199.332031 94.089844 193.753906 99.667969 186.875 99.667969 C 179.996094 99.667969 174.417969 94.089844 174.417969 87.207031 L 174.417969 74.75 C 174.417969 60.988281 163.261719 49.832031 149.5 49.832031 L 80.980469 49.832031 C 63.777344 49.832031 49.832031 63.777344 49.832031 80.980469 L 49.832031 218.019531 C 49.832031 235.222656 63.777344 249.167969 80.980469 249.167969 L 149.5 249.167969 C 163.261719 249.167969 174.417969 238.011719 174.417969 224.25 L 174.417969 211.792969 C 174.417969 204.910156 179.996094 199.332031 186.875 199.332031 C 193.753906 199.332031 199.332031 204.910156 199.332031 211.792969 L 199.332031 224.25 C 199.332031 251.773438 177.023438 274.082031 149.5 274.082031 L 80.980469 274.082031 C 50.015625 274.082031 24.917969 248.984375 24.917969 218.019531 Z M 227.898438 103.316406 C 232.761719 98.449219 240.652344 98.449219 245.515625 103.316406 L 282.890625 140.691406 C 287.757812 145.554688 287.757812 153.445312 282.890625 158.308594 L 245.515625 195.683594 C 240.652344 200.550781 232.761719 200.550781 227.898438 195.683594 C 223.035156 190.820312 223.035156 182.929688 227.898438 178.066406 L 244.007812 161.957031 L 137.042969 161.957031 C 130.160156 161.957031 124.582031 156.378906 124.582031 149.5 C 124.582031 142.621094 130.160156 137.042969 137.042969 137.042969 L 244.007812 137.042969 L 227.898438 120.933594 C 223.035156 116.066406 223.035156 108.183594 227.898438 103.316406 Z M 227.898438 103.316406 "/>
</g>
</svg>
