<?xml version="1.0" encoding="UTF-8"?>
<svg xmlns="http://www.w3.org/2000/svg" xmlns:xlink="http://www.w3.org/1999/xlink" width="699px" height="699px" viewBox="0 0 699 699" version="1.1">
<g id="surface1">
<path style=" stroke:none;fill-rule:evenodd;fill:rgb(98.431373%,62.352941%,41.176471%);fill-opacity:1;" d="M 58.25 189.3125 C 58.25 116.929688 116.929688 58.25 189.3125 58.25 L 349.5 58.25 C 413.839844 58.25 466 110.410156 466 174.75 L 466 203.875 C 466 219.960938 452.960938 233 436.875 233 C 420.789062 233 407.75 219.960938 407.75 203.875 L 407.75 174.75 C 407.75 142.578125 381.671875 116.5 349.5 116.5 L 189.3125 116.5 C 149.097656 116.5 116.5 149.097656 116.5 189.3125 L 116.5 509.6875 C 116.5 549.898438 149.097656 582.5 189.3125 582.5 L 349.5 582.5 C 381.671875 582.5 407.75 556.421875 407.75 524.25 L 407.75 495.125 C 407.75 479.039062 420.789062 466 436.875 466 C 452.960938 466 466 479.039062 466 495.125 L 466 524.25 C 466 588.589844 413.839844 640.75 349.5 640.75 L 189.3125 640.75 C 116.929688 640.75 58.25 582.070312 58.25 509.6875 Z M 532.78125 241.53125 C 544.152344 230.15625 562.597656 230.15625 573.96875 241.53125 L 661.34375 328.90625 C 672.71875 340.277344 672.71875 358.722656 661.34375 370.09375 L 573.96875 457.46875 C 562.597656 468.84375 544.152344 468.84375 532.78125 457.46875 C 521.40625 446.097656 521.40625 427.652344 532.78125 416.28125 L 570.4375 378.625 L 320.375 378.625 C 304.289062 378.625 291.25 365.585938 291.25 349.5 C 291.25 333.414062 304.289062 320.375 320.375 320.375 L 570.4375 320.375 L 532.78125 282.71875 C 521.40625 271.34375 521.40625 252.90625 532.78125 241.53125 Z M 532.78125 241.53125 "/>
</g>
</svg>
